<svg xmlns="http://www.w3.org/2000/svg" width="24" height="24"><path d="M11.481 12.065c.055-.018.11-.035 0 0s-.382.123-.488-.074c-.107-.197-.047-.68.327-.9.374-.222 1.062-.182 1.477.292.414.475.555 1.386.09 2.07-.465.684-1.536 1.141-2.513.82-.976-.322-1.858-1.423-1.823-2.652.035-1.23.986-2.587 2.366-2.967 1.381-.38 3.191.217 4.073 1.594.881 1.376.835 3.53-.345 4.94-1.18 1.408-3.491 2.07-5.377 1.293-1.886-.778-3.346-2.995-3.159-5.23.187-2.235 2.022-4.488 4.406-5.034 2.384-.546 5.318.615 6.668 2.895 1.35 2.28 1.114 5.678-.78 7.81-1.894 2.133-5.446 3-8.242 1.767-2.795-1.234-4.833-4.568-4.494-7.809.34-3.24 3.058-6.388 6.445-7.1 3.388-.711 7.447 1.014 9.264 4.196 1.817 3.183 1.393 7.823-1.215 10.68-2.608 2.858-7.4 3.932-11.106 2.24-3.707-1.692-6.33-6.15-5.83-10.386.502-4.236 4.126-8.25 8.485-9.166 4.359-.917 9.452 1.263 11.859 5.496 2.407 4.234 2.129 10.521-1.65 13.552-3.78 3.03-11.06 2.803-13.971 2.712-2.912-.09-1.456-.045 0 0" fill="none" stroke="currentColor" stroke-width="1.5"/></svg>