<svg xmlns="http://www.w3.org/2000/svg" width="450" height="450">
	<symbol>
		<path id="path" fill="none" stroke="red"
			d="M10,90 Q90,90 90,45 Q90,10 50,10 Q10,10 10,40 Q10,70 45,70 Q70,70 75,50" />
	</symbol>
	<path d="M 10,30
		A 20,20 0,0,1 50,30
		A 20,20 0,0,1 90,30
		Q 90,60 50,90
		Q 10,60 10,30"
		transform="translate(10, 300) rotate(90, 20, 80)"/>
	<a>
		<circle id="c" cx="395" cy="45" r="40" transform="rotate(90, 395, 45)" ></circle>
	</a>
	<g>
		<ellipse cx="160" cy="45" rx="60" ry="40" transform="translate(130)"></ellipse>
		<rect x="240" y="5" width="100" height="100" transform="translate(-130, 350)" />
	</g>
	<image href="https://mdn.mozillademos.org/files/6457/mdn_logo_only_color.png" x="10" y="120" height="200" width="200" transform="translate(230)" />
	<g >
		<line x1="220" x2="360" y1="120" y2="320" stroke="black" stroke-width="5" transform="translate(-210)" ></line>
		<polygon points="350,300 400,225 400,275 450,200" transform="translate(-210)" />
		<polyline points="350,250 400,175 400,225 450,150" transform="translate(-210)" />
	</g>
	<text transform="rotate(180, 50, 50)" >
		<textPath href="#path">
			Quick brown fox jumps over the lazy dog.
		</textPath>
	</text>
	<use x="110" y="350" href="#path" transform="translate(0, -350)" ></use>
	<use x="-140" y="350" href="#c" transform="translate(-100) skewX(14)"></use>
	<text transform="rotate(25, 350, 400)">
		<tspan x="300" y="400" textLength="150" >Blah blah blah...</tspan>
	</text>
</svg>
