<svg xmlns="http://www.w3.org/2000/svg" width="48" height="48">
    <defs />
    <path fill="#000000" d="M26.87372,24.4122c-5.01869,0 -9.3551,-3.04088 -11.40191,-7.44933c0.15195,-0.62239 0.27459,-1.37752 0.35803,-2.22267c0.78674,-0.99125 1.28426,-2.45323 1.28426,-4.08382c0,-1.38973 -0.36138,-2.65699 -0.95526,-3.61476c2.1531,-0.5213 3.72335,-2.14538 3.72335,-4.06818c0,-0.01223 -0.00005,-0.02438 -0.00016,-0.03665c1.17188,-0.36029 2.16309,-0.9558 2.85201,-1.70129c1.08568,0.38655 2.43418,0.61557 3.8952,0.61557c1.42497,0 2.74283,-0.21784 3.81423,-0.5872c0.95235,0.56045 2.21235,0.95002 3.62467,1.08018c-0.00429,0.07071 -0.0065,0.14178 -0.0065,0.21323c0,1.78172 1.34822,3.30689 3.2591,3.93593c-0.86162,0.99035 -1.41431,2.52165 -1.41431,4.24038c0,2.23905 0.93808,4.16014 2.27515,4.98132c0.05117,0.3801 0.11084,0.73639 0.17784,1.06372c-2.01047,4.50771 -6.39743,7.63348 -11.48571,7.63348z" />
    <path fill="#6AEF94FA" d="M42.24752,30.5944c0,9.42925 -0.62445,12.53806 -0.62445,12.53806c-0.90334,2.16802 -6.25104,1.81458 -14.73237,1.81458c-8.48134,0 -13.48349,-0.89894 -14.8385,-2.70563c-0.72267,-0.271 -0.51832,-2.21777 -0.51832,-11.64702c0,-9.42925 6.87548,-17.07317 15.35682,-17.07317c8.48134,0 15.35682,7.64392 15.35682,17.07317z" />
    <ellipse cx="15.3510103225708" cy="26.14646339416504" rx="10.290403366088867" ry="4.0404052734375" fill="#6AEF94FA" />
    <ellipse cx="35.03448182344437" cy="44.25861740112305" rx="4.827587127685547" ry="3.8793123960494995" fill="#6AEF94FA" id="" />
    <ellipse cx="18.482758343219757" cy="44.344825744628906" rx="4.827587127685547" ry="3.8793123960494995" fill="#6AEF94FA" />
    <path fill="currentColor" d="M12.25024,25.68519c0.62762,-3.71318 5.35432,-10.57001 7.24844,-9.73361c8.04734,18.04734 22.6506,17.67122 22.6506,17.67122c0.25453,1.08176 -0.08528,8.86371 -0.30219,11.56678c-1.27921,0.05015 -2.36141,0.86734 -2.79946,2.00446c-0.54894,-0.90646 -1.54452,-1.51226 -2.6816,-1.51226c-1.28371,0 -2.38708,0.77212 -2.87103,1.87729c-0.55458,-0.88024 -1.53522,-1.46509 -2.65246,-1.46509c-1.28032,0 -2.38125,0.76805 -2.86718,1.86853c-0.06194,-0.00414 -0.11907,-0.00806 -0.17114,-0.01172c-0.46934,-1.13816 -1.5898,-1.93925 -2.89737,-1.93925c-1.2525,0 -2.33332,0.73503 -2.83464,1.79727c-0.36739,-1.32183 -1.57971,-2.29192 -3.01861,-2.29192c-0.90562,0 -1.72149,0.38428 -2.29344,0.99867c-0.29931,-1.41816 -1.55794,-2.48259 -3.06518,-2.48259c-0.91478,0 -1.73798,0.39209 -2.31072,1.01738c-0.00649,-1.53754 -0.30485,-17.90162 0.86598,-19.36516z" color="#D47708" data-savage-display="inline" display="inline" />
    <circle cx="27.0502872467041" cy="12.78812837600708" r="7.254741668701172" fill="#6AEF94FA" stroke="none" stroke-width="0.1" />
    <path fill="#000000" stroke="" stroke-width="0.1" id="" d="M27.05029,5.53339c2.44991,0 4.61618,1.21438 5.92971,3.07402c-0.92877,0.85175 -2.27387,1.38719 -3.77025,1.38719c-1.1017,0 -2.12141,-0.29023 -2.95332,-0.78326c-1.43686,1.14534 -3.52201,1.8658 -5.84235,1.8658c-0.13879,0 -0.27673,-0.00258 -0.41375,-0.00767c0.77182,-3.17712 3.63541,-5.53607 7.04995,-5.53607z" />
    <path d="M7.02985,22.36035c-0.4995,-1.3986 -3.14462,22.19851 -2.84492,21.03996c-0.3149,2.99841 0.69122,3.88827 0.73287,4.11451c1.99969,0.79638 3.26479,-0.28507 3.58813,-0.44322c0.77134,-2.11591 0.34786,-0.70111 0.71003,-3.39729c0,0 -0.23622,-22.56616 -1.53492,-21.66706" fill="#5F1D1D" />
    <ellipse cx="7.964646264910698" cy="26.02020263671875" rx="2.830808103084564" ry="1.8838384747505188" fill="#6AEF94FA" />
    <circle cx="17.824228286743164" cy="27.562946319580078" r="4.631828308105469" fill="#000000" fill-opacity="0.65" />
    <circle cx="28.750593185424805" cy="37.7767219543457" r="4.988124847412109" fill="#000" fill-opacity="0.65" />
</svg>
